<svg xmlns="http://www.w3.org/2000/svg" viewBox="0 0 624.33 255.3"><defs><style>.cls-1,.cls-2{fill:#000000;}.cls-2{font-size:123.41px;font-family:Nexa-Heavy, Nexa;font-weight:800;letter-spacing:-0.02em;}.cls-3{letter-spacing:-0.01em;}.cls-4{letter-spacing:-0.03em;}.cls-5{letter-spacing:0em;}.cls-6{font-size:72px;letter-spacing:-0.02em;}.cls-7{letter-spacing:0em;}</style></defs><g id="Layer_2" data-name="Layer 2"><g id="Layer_2-2" data-name="Layer 2"><path class="cls-1" d="M213.4,71q-2.47-3.6-5.29-7a94.1,94.1,0,0,0-16.18-15.35,86.94,86.94,0,0,0-23.58-12.5c-2.24-1-4.51-1.82-6.83-2.58l-.06,0c-20.56-6.22-42.33-3.93-59.79,8.27C82,55.6,72.24,78.83,73.28,103.42a72.55,72.55,0,0,1,27.58-18.66c36.29-13.88,76.5,3.08,89.82,37.88a66.05,66.05,0,0,1-3.33,54.19c-.17.47-.35.94-.54,1.4a.62.62,0,0,0,.95.73c8.66-6.63,15.81-15.27,21.82-25.15C221.88,133.59,228.63,93.09,213.4,71Z"/><path class="cls-1" d="M221.87,59.58C189.4,15.68,120.75,7.1,78.38,41.62h0s0,0,0,0A76.58,76.58,0,0,0,57.7,62.91c-.55.83-1.1,1.68-1.62,2.53l-.15.24c-9.19,15.06-14.22,33.17-15.18,51a115.09,115.09,0,0,0,1.44,22.69c.09.61.2,1.22.31,1.83a114.36,114.36,0,0,0,6.3,22.18c8.47,21.34,23.47,39.94,44.44,51.13a106.64,106.64,0,0,0,13.7,6.66.67.67,0,0,1-.14,1.29l-.45,0a126.08,126.08,0,0,1-14.63-2.3,132.93,132.93,0,0,1-21.45-6.59c-33.81-13.57-58.09-38.93-66.7-65.87C.78,138.89-9.16,86.69,24.1,44.43,51.35,9.81,97.33-4.08,139.8,1a110,110,0,0,1,16.26,3.2C182.4,11.5,206.52,29,223,58.86A.67.67,0,0,1,221.87,59.58Z"/><path class="cls-1" d="M233.07,255.29c-48.89-37.63-115-3.44-172.87-90-.24-.35.23-.81.55-.53,54.06,46.9,104.43,12.8,145.43,40.8,5.78,3,6.65,6.67,6.32,10.27-4.58-2.84-16.37-6.35-15.83,1s20.06,18.81,27.15,20.67C230.8,240.55,233.58,255.68,233.07,255.29Z"/><text class="cls-2" transform="translate(264.46 139.87)">T<tspan class="cls-3" x="74.66" y="0">ic</tspan><tspan class="cls-4" x="171.29" y="0">k</tspan><tspan class="cls-5" x="236.08" y="0">et</tspan><tspan class="cls-6"><tspan x="205" y="60">P</tspan><tspan class="cls-7" x="254.03" y="60">ool</tspan></tspan></text></g></g></svg>